<svg width="92" height="92" viewBox="0 0 92 92" fill="none" xmlns="http://www.w3.org/2000/svg">
<circle cx="46" cy="46" r="45.5" stroke="#3C4668"/>
<path d="M56.6663 58V55.3333C56.6663 53.9188 56.1044 52.5623 55.1042 51.5621C54.104 50.5619 52.7475 50 51.333 50H40.6663C39.2519 50 37.8953 50.5619 36.8951 51.5621C35.8949 52.5623 35.333 53.9188 35.333 55.3333V58" stroke="#3C4668" stroke-width="2" stroke-linecap="round" stroke-linejoin="round"/>
<path d="M46.0003 44.6667C48.9458 44.6667 51.3337 42.2789 51.3337 39.3333C51.3337 36.3878 48.9458 34 46.0003 34C43.0548 34 40.667 36.3878 40.667 39.3333C40.667 42.2789 43.0548 44.6667 46.0003 44.6667Z" stroke="#3C4668" stroke-width="2" stroke-linecap="round" stroke-linejoin="round"/>
</svg>
