<svg width="65" height="63" viewBox="0 0 65 63" fill="none" xmlns="http://www.w3.org/2000/svg">
<path d="M11.5951 17.6208L16.0849 19.8657C16.9114 20.2267 17.8107 20.3894 18.7111 20.3407C19.6116 20.2919 20.4881 20.0332 21.2707 19.5851L25.5137 16.8239C26.2437 16.294 26.838 15.5986 27.2477 14.7948C27.6574 13.991 27.871 13.1016 27.8707 12.1993L27.6015 7.13705C27.5031 6.24211 27.196 5.38264 26.7047 4.62812C26.2133 3.87361 25.5516 3.24503 24.7727 2.79313L20.2829 0.492084C19.4581 0.126835 18.5588 -0.0390637 17.6579 0.00774284C16.757 0.0545494 15.8797 0.312714 15.0971 0.761474L10.8543 3.52273C10.1255 4.05399 9.5322 4.74958 9.12273 5.55314C8.71314 6.3566 8.49875 7.24548 8.49707 8.14726L8.76646 13.2096C8.85367 14.1167 9.15573 14.99 9.64759 15.7571C10.1395 16.5243 10.8071 17.1632 11.5951 17.6208Z" fill="#E3685D"/>
<path d="M38.6804 24.1709L34.1906 21.8698C33.3662 21.509 32.4686 21.3464 31.57 21.3952C30.6714 21.4439 29.7967 21.7026 29.0161 22.1505L24.7283 24.9117C24.0021 25.4455 23.4107 26.1416 23.0015 26.9446C22.5922 27.7475 22.3763 28.635 22.3711 29.5363L22.6406 34.5986C22.7388 35.4936 23.0459 36.3531 23.5372 37.1076C24.0286 37.8621 24.6903 38.4907 25.4691 38.9425L29.9589 41.1874C30.7819 41.5525 31.6793 41.7185 32.5785 41.6717C33.4776 41.6249 34.3529 41.3667 35.1335 40.918L39.3876 38.1568C40.114 37.6207 40.7054 36.9225 41.1145 36.1177C41.5237 35.313 41.7396 34.4238 41.7448 33.521L41.4754 28.4699C41.3724 27.5864 41.0666 26.7386 40.5818 25.9929C40.0969 25.2471 39.4462 24.6236 38.6804 24.1709Z" fill="#E3685D"/>
<path d="M52.5315 45.5223L48.0417 43.2774C47.2168 42.912 46.3176 42.7461 45.4167 42.7929C44.5158 42.8397 43.6385 43.0979 42.8559 43.5467L38.6131 46.308C37.8856 46.8404 37.2932 47.5363 36.8839 48.3395C36.4744 49.1428 36.2593 50.031 36.2559 50.9325L36.5254 55.9948C36.6328 56.8754 36.9419 57.7194 37.4286 58.461C37.9152 59.2027 38.5664 59.8222 39.3315 60.2714L43.8214 62.5163C44.6477 62.8772 45.547 63.0398 46.4475 62.9911C47.3479 62.9424 48.2244 62.6837 49.0071 62.2357L53.2611 59.4745C53.9879 58.942 54.579 58.2458 54.9866 57.4424C55.3942 56.6389 55.6067 55.7508 55.6072 54.8499L55.3714 49.8774C55.2745 48.9791 54.9668 48.1164 54.4733 47.3595C53.9799 46.6028 53.3145 45.9732 52.5315 45.5223Z" fill="#E3685D"/>
<path d="M19.4522 32.9505L19.239 29.0107C19.2441 28.1095 19.46 27.2219 19.8693 26.419C20.2786 25.616 20.8699 24.9199 21.5961 24.3861L29.8687 19.0096C30.6492 18.5617 31.524 18.303 32.4226 18.2543C33.3212 18.2055 34.2188 18.3682 35.0432 18.7289L38.5677 20.5249C39.3926 20.8901 40.2918 21.0561 41.1927 21.0093C42.0937 20.9625 42.9709 20.7042 43.7535 20.2555L47.9964 17.483C48.7246 16.9512 49.3173 16.2555 49.7268 15.452C50.1363 14.6487 50.351 13.7603 50.3536 12.8585L50.0842 7.8074C49.9876 6.91044 49.6812 6.04873 49.1898 5.29219C48.6984 4.53554 48.0358 3.90528 47.2556 3.45225L42.7657 1.15121C41.9394 0.79034 41.0401 0.627695 40.1395 0.67641C39.2391 0.725125 38.3626 0.983852 37.58 1.43183L33.2473 4.14818C32.5205 4.68068 31.9294 5.37683 31.5218 6.18028C31.1143 6.98374 30.9017 7.87183 30.9013 8.77272L31.1034 12.7126C31.103 13.6136 30.8903 14.5016 30.4828 15.3051C30.0752 16.1086 29.4841 16.8047 28.7574 17.3371L20.4849 22.7137C19.7023 23.1624 18.8251 23.4207 17.9242 23.4675C17.0232 23.5143 16.124 23.3483 15.2991 22.9831L11.7858 21.1984C10.9609 20.8331 10.0617 20.6672 9.16074 20.714C8.25985 20.7608 7.38264 21.019 6.60006 21.4677L2.35717 24.229C1.62835 24.7603 1.03513 25.4558 0.625548 26.2594C0.215962 27.063 0.00168369 27.9517 0 28.8535L0.269388 33.9158C0.365022 34.8131 0.671117 35.6752 1.16253 36.4319C1.65406 37.1887 2.31709 37.8187 3.09799 38.271L7.58783 40.5159C8.41419 40.8769 9.3135 41.0395 10.2139 40.9908C11.1144 40.9421 11.991 40.6834 12.7736 40.2353L17.0165 37.474C17.7457 36.9607 18.3452 36.2848 18.768 35.4996C19.1907 34.7146 19.425 33.8419 19.4522 32.9505Z" fill="#E3685D"/>
<path d="M63.8918 29.1563C63.7918 28.2603 63.484 27.4 62.993 26.6439C62.5019 25.8878 61.8411 25.2568 61.0632 24.8012L56.5734 22.5562C55.7468 22.1962 54.8475 22.034 53.9473 22.0827C53.0469 22.1314 52.1704 22.3897 51.3876 22.8369L47.1446 25.5981C46.4171 26.1306 45.8249 26.8264 45.4154 27.6297C45.0061 28.4329 44.7909 29.3211 44.7875 30.2226L45.0008 34.1737C44.9973 35.0752 44.7823 35.9634 44.3728 36.7666C43.9634 37.5698 43.3711 38.2658 42.6435 38.7982L34.3822 44.1636C33.5996 44.6116 32.7231 44.8703 31.8227 44.919C30.9222 44.9677 30.0229 44.8051 29.1965 44.4442L25.6719 42.6483C24.8475 42.2874 23.95 42.1248 23.0513 42.1735C22.1527 42.2223 21.2781 42.4809 20.4974 42.9289L16.2096 45.6789C15.4835 46.2127 14.8922 46.9087 14.4828 47.7117C14.0736 48.5146 13.8577 49.4021 13.8525 50.3035L14.1218 55.3656C14.2201 56.2607 14.5272 57.1202 15.0186 57.8747C15.51 58.6292 16.1717 59.2578 16.9505 59.7097L21.4404 62.0107C22.2632 62.3759 23.1607 62.5418 24.0597 62.495C24.9589 62.4482 25.8342 62.1899 26.6149 61.7412L30.8689 58.98C31.5945 58.4457 32.1855 57.7494 32.5946 56.9466C33.0038 56.1437 33.22 55.2566 33.2262 54.3556L33.0129 50.4044C33.0154 49.5027 33.2301 48.6143 33.6396 47.8109C34.0491 47.0075 34.6419 46.3118 35.37 45.7798L43.6313 40.4034C44.4139 39.9546 45.2912 39.6963 46.1921 39.6495C47.093 39.6027 47.9922 39.7686 48.8171 40.1339L52.3304 41.9187C53.1553 42.2839 54.0546 42.4498 54.9555 42.403C55.8564 42.3562 56.7336 42.0981 57.5161 41.6493L61.7704 38.888C62.4964 38.3549 63.087 37.6586 63.4945 36.8554C63.902 36.052 64.115 35.1642 64.1162 34.2635L63.8918 29.1563Z" fill="#E3685D"/>
</svg>
