<svg width="109" height="102" viewBox="0 0 109 102" fill="none" xmlns="http://www.w3.org/2000/svg">
<path d="M55.0003 65.0279C56.456 65.0279 57.8521 64.4496 58.8815 63.4202C59.9109 62.3909 60.4892 60.9947 60.4892 59.539V34.1212C60.4892 32.6655 59.9109 31.2693 58.8815 30.24C57.8521 29.2106 56.456 28.6323 55.0003 28.6323C53.5445 28.6323 52.1484 29.2106 51.119 30.24C50.0897 31.2693 49.5114 32.6655 49.5114 34.1212V59.4545C49.5002 60.1824 49.6339 60.9053 49.9047 61.581C50.1755 62.2567 50.5781 62.8718 51.0889 63.3905C51.5997 63.9091 52.2086 64.321 52.8801 64.6021C53.5516 64.8832 54.2723 65.028 55.0003 65.0279Z" fill="#E3685D"/>
<path d="M54.7889 83.8178C58.2867 83.8178 61.1222 80.9823 61.1222 77.4845C61.1222 73.9867 58.2867 71.1511 54.7889 71.1511C51.2911 71.1511 48.4556 73.9867 48.4556 77.4845C48.4556 80.9823 51.2911 83.8178 54.7889 83.8178Z" fill="#E3685D"/>
<path d="M107.06 82.8261L65.9356 7.0794C64.8469 5.07896 63.2389 3.40909 61.281 2.24559C59.323 1.08209 57.0876 0.468018 54.8101 0.468018C52.5326 0.468018 50.2971 1.08209 48.3392 2.24559C46.3813 3.40909 44.7733 5.07896 43.6845 7.0794L2.51787 82.8261C1.44038 84.7601 0.88862 86.9428 0.917589 89.1565C0.946557 91.3702 1.55524 93.5377 2.68297 95.4429C3.8107 97.3481 5.41808 98.9244 7.3449 100.015C9.27171 101.105 11.4507 101.671 13.6645 101.657H95.9134C98.1092 101.659 100.268 101.09 102.177 100.007C104.087 98.9227 105.682 97.3611 106.806 95.4749C107.93 93.5887 108.545 91.4427 108.589 89.2474C108.634 87.0521 108.107 84.883 107.06 82.9527V82.8261ZM99.5445 91.0172C99.1708 91.6475 98.6395 92.1696 98.0029 92.5324C97.3663 92.8951 96.6462 93.0859 95.9134 93.0861H13.6645C12.9306 93.0881 12.2088 92.8987 11.5704 92.5367C10.932 92.1747 10.3989 91.6526 10.0238 91.0217C9.64875 90.3909 9.44458 89.6732 9.43145 88.9394C9.41832 88.2056 9.5967 87.481 9.94898 86.8372L51.0734 11.0905C51.4352 10.4202 51.9716 9.86029 52.6257 9.47004C53.2798 9.07978 54.0273 8.87373 54.789 8.87373C55.5507 8.87373 56.2982 9.07978 56.9523 9.47004C57.6064 9.86029 58.1428 10.4202 58.5045 11.0905L99.629 86.8372C99.979 87.4813 100.155 88.2054 100.14 88.9384C100.126 89.6713 99.9203 90.3877 99.5445 91.0172Z" fill="#E3685D"/>
</svg>
