<svg width="64" height="64" fill="none" xmlns="http://www.w3.org/2000/svg"><path d="M60 28H22a3 3 0 00-3 3v26a3 3 0 003 3h38a3 3 0 003-3V31a3 3 0 00-3-3zM46.015 45.8L37 51a2 2 0 01-3-1.732V38.751a2 2 0 013.017-1.723l9.015 5.319a2 2 0 01-.017 3.453z" fill="#A5D9A1"/><path d="M48 4H4a3 3 0 00-3 3v38a3 3 0 003 3h44a3 3 0 003-3V7a3 3 0 00-3-3zM4 6h44a1 1 0 011 1v3H3V7a1 1 0 011-1zm7.7 24.5a3.5 3.5 0 117 0 3.5 3.5 0 01-7 0zM21.4 46H9v-3.8a6.2 6.2 0 0112.4 0V46zM48 46H23.4v-3.8a8.2 8.2 0 00-4.745-7.426 5.5 5.5 0 10-6.909 0A8.2 8.2 0 007 42.2V46H4a1 1 0 01-1-1V12h46v33a1 1 0 01-1 1zm-4-21a1 1 0 01-1 1H28a1 1 0 010-2h15a1 1 0 011 1zm0-5a1 1 0 01-1 1H28a1 1 0 010-2h15a1 1 0 011 1zm0 10a1 1 0 01-1 1H28a1 1 0 010-2h15a1 1 0 011 1zm-10 5a1 1 0 01-1 1h-5a1 1 0 010-2h5a1 1 0 011 1zm10 0a1 1 0 01-1 1h-5a1 1 0 010-2h5a1 1 0 011 1z" fill="#000"/></svg>