<svg width="64" height="64" fill="none" xmlns="http://www.w3.org/2000/svg"><path d="M32 63H20a1 1 0 01-1-1V50a13.015 13.015 0 0013 13zm10.614-37.03L21 47.586V50a11.013 11.013 0 0011 11h2.414l21.614-21.616L42.614 25.97zm17.97-2.8l-1.758-1.758a8.24 8.24 0 00-11.656 0l-3.142 3.142L57.442 37.97l3.142-3.142a8.239 8.239 0 000-11.656v-.002z" fill="#A5D9A1"/><path d="M48 1H31.993a6.986 6.986 0 00-6 3.391A7 7 0 0020 1H4a3 3 0 00-3 3v36a5.006 5.006 0 005 5h40a5.006 5.006 0 005-5V4a3 3 0 00-3-3zM27 8a4.99 4.99 0 014.993-5H48a1 1 0 011 1v32a1 1 0 01-1 1H31.992a6.951 6.951 0 00-4.948 2.051c-.015.016-.028.034-.044.05V8zM3 4a1 1 0 011-1h16a5.006 5.006 0 015 4.994v31.123A6.97 6.97 0 0020 37H4a1 1 0 01-1-1V4zm0 36v-1.184c.32.118.659.18 1 .184h16a5.007 5.007 0 014.9 4H6a3 3 0 01-3-3zm43 3H27.1a4.993 4.993 0 014.893-4H48a2.97 2.97 0 001-.184V40a3 3 0 01-3 3zM7 11a1 1 0 011-1h12a1 1 0 010 2H8a1 1 0 01-1-1zm0 18a1 1 0 011-1h12a1 1 0 010 2H8a1 1 0 01-1-1zm0-6a1 1 0 011-1h12a1 1 0 010 2H8a1 1 0 01-1-1zm0-6a1 1 0 011-1h12a1 1 0 010 2H8a1 1 0 01-1-1zm24-6a1 1 0 011-1h12a1 1 0 010 2H32a1 1 0 01-1-1zm0 18a1 1 0 011-1h12a1 1 0 010 2H32a1 1 0 01-1-1zm0-6a1 1 0 011-1h12a1 1 0 010 2H32a1 1 0 01-1-1zm0-6a1 1 0 011-1h12a1 1 0 010 2H32a1 1 0 01-1-1z" fill="#000"/></svg>