<svg width="64" height="64" fill="none" xmlns="http://www.w3.org/2000/svg"><path d="M16 34v-6a3 3 0 013-3h38a3 3 0 013 3v6H16zm44 2v24a3 3 0 01-3 3H19a3 3 0 01-3-3V36h44zM30 56a1 1 0 00-1-1h-6a1 1 0 000 2h6a1 1 0 001-1zm0-7a1 1 0 00-1-1h-6a1 1 0 000 2h6a1 1 0 001-1zm0-6a1 1 0 00-1-1h-6a1 1 0 000 2h6a1 1 0 001-1zm12 13.009a1 1 0 00-1-1h-6.167a1 1 0 000 2H41a1 1 0 001-1zm0-7a1 1 0 00-1-1h-6.167a1 1 0 000 2H41a1 1 0 001-1zm0-6a1 1 0 00-1-1h-6.167a1 1 0 000 2H41a1 1 0 001-1zM54 56a1 1 0 00-1-1h-6a1 1 0 000 2h6a1 1 0 001-1zm0-7a1 1 0 00-1-1h-6a1 1 0 000 2h6a1 1 0 001-1zm0-6a1 1 0 00-1-1h-6a1 1 0 000 2h6a1 1 0 001-1z" fill="#A5D9A1"/><path d="M16.945 37h-6a1 1 0 00-1 1v6a1 1 0 001 1h6a1 1 0 001-1v-6a1 1 0 00-1-1zm-1 6h-4v-4h4v4z" fill="#000"/><path d="M39 8h-9V4a3 3 0 00-3-3h-8a3 3 0 00-3 3v4H7a3 3 0 00-3 3v38a3 3 0 003 3h32a3 3 0 003-3V11a3 3 0 00-3-3zM18 4a1 1 0 011-1h8a1 1 0 011 1v4H18V4zm22 45a1 1 0 01-1 1H7a1 1 0 01-1-1V11a1 1 0 011-1h32a1 1 0 011 1v38z" fill="#000"/><path d="M17.218 27.375l-3.3 4.128-2.21-2.21a1 1 0 00-1.414 1.414l3 3a1 1 0 001.488-.082l4-5a1 1 0 00-1.562-1.25h-.002zm0-10l-3.3 4.128-2.21-2.21a1 1 0 00-1.414 1.414l3 3a1 1 0 001.488-.082l4-5a1 1 0 00-1.562-1.25h-.002zM35 29H23a1 1 0 000 2h12a1 1 0 000-2zm0-10H23a1 1 0 000 2h12a1 1 0 000-2z" fill="#000"/></svg>