<svg width="64" height="64" fill="none" xmlns="http://www.w3.org/2000/svg"><path d="M62.706 30.792l-12-12A1 1 0 0050 18.5H28a3 3 0 00-3 3v38a3 3 0 003 3h32a3 3 0 003-3v-28a.999.999 0 00-.294-.708zM53 53.5H35a1 1 0 010-2h18a1 1 0 010 2zm0-6H35a1 1 0 010-2h18a1 1 0 010 2zm0-6H35a1 1 0 010-2h18a1 1 0 010 2zm-1-11a1 1 0 01-1-1v-7.586l8.586 8.586H52z" fill="#A5D9A1"/><path d="M48.612 31.5H33.441a3 3 0 00-2.841 2.051L27 44.36a13.01 13.01 0 00-8.377-12 10 10 0 10-9.232 0A13.011 13.011 0 001 44.5v6a1 1 0 001 1h42a1 1 0 00.948-.684l5.562-16.683a2.001 2.001 0 00-1.898-2.633zM14 15.5a7.984 7.984 0 016.154 2.9 29.3 29.3 0 01-14.08 4.07A8.007 8.007 0 0114 15.5zm-7.935 8.97a31.285 31.285 0 0015.159-4.384A7.992 7.992 0 116.065 24.47zM25 49.5H3v-5a11 11 0 1122 0v5zm18.279 0H27.388l5.1-15.316a.999.999 0 01.949-.684h15.176l-5.334 16zM48 1.5H34a3 3 0 00-3 3v15.7l-3.832 5.748A1 1 0 0028 27.5h20a3 3 0 003-3v-20a3 3 0 00-3-3zm1 23a1 1 0 01-1 1H29.868l2.964-4.445A.997.997 0 0033 20.5v-16a1 1 0 011-1h14a1 1 0 011 1v20zm-4-16a1 1 0 01-1 1h-6a1 1 0 110-2h6a1 1 0 011 1zm0 6a1 1 0 01-1 1h-6a1 1 0 010-2h6a1 1 0 011 1zm0 6a1 1 0 01-1 1h-6a1 1 0 010-2h6a1 1 0 011 1z" fill="#000"/></svg>