<svg width="256" height="66" fill="none" xmlns="http://www.w3.org/2000/svg"><path d="M12.148 18.46l4.704 2.352a6.056 6.056 0 005.432-.294l4.445-2.893a5.984 5.984 0 002.47-4.845l-.283-5.303a6.022 6.022 0 00-2.963-4.55L21.25.515a6.02 6.02 0 00-5.432.282L11.372 3.69a6.008 6.008 0 00-2.47 4.845l.283 5.304a6.01 6.01 0 002.963 4.62zm28.375 6.863l-4.704-2.41a6.032 6.032 0 00-5.421.293L25.906 26.1a6.058 6.058 0 00-2.47 4.845l.283 5.303a6.02 6.02 0 002.963 4.551l4.704 2.352a5.997 5.997 0 005.42-.282l4.457-2.893a6.08 6.08 0 002.47-4.857l-.282-5.291a6.045 6.045 0 00-2.928-4.504zm14.51 22.369L50.33 45.34a6.02 6.02 0 00-5.433.282l-4.445 2.893a6.03 6.03 0 00-2.47 4.845l.283 5.303a6.042 6.042 0 002.94 4.48l4.703 2.352a6.058 6.058 0 005.433-.294l4.456-2.893a6.01 6.01 0 002.458-4.844l-.247-5.21a6.008 6.008 0 00-2.975-4.562z" fill="#E3685D"/><path d="M20.378 34.523l-.223-4.128a6.054 6.054 0 012.47-4.844l8.666-5.633a6.033 6.033 0 015.42-.294l3.693 1.882a6.02 6.02 0 005.433-.283l4.445-2.904a6.02 6.02 0 002.47-4.845l-.283-5.291a6.02 6.02 0 00-2.963-4.563l-4.704-2.41a6.057 6.057 0 00-5.432.293L34.83 4.35a6.008 6.008 0 00-2.457 4.845l.212 4.127a6.01 6.01 0 01-2.458 4.845L21.46 23.8a6.02 6.02 0 01-5.432.282l-3.68-1.87a6.022 6.022 0 00-5.434.282L2.47 25.386A6.01 6.01 0 000 30.231l.282 5.303a6.01 6.01 0 002.964 4.563l4.703 2.352a6.057 6.057 0 005.433-.294l4.445-2.893a6.02 6.02 0 002.551-4.74zm46.557-3.979a6.068 6.068 0 00-2.964-4.562l-4.703-2.352a6.066 6.066 0 00-5.433.294l-4.445 2.893a6.034 6.034 0 00-2.47 4.845l.224 4.139a6.031 6.031 0 01-2.47 4.844l-8.654 5.621a6.056 6.056 0 01-5.433.294l-3.692-1.881a6.03 6.03 0 00-5.421.294l-4.492 2.88a6.057 6.057 0 00-2.47 4.846l.283 5.303a6.022 6.022 0 002.963 4.55l4.704 2.411a5.996 5.996 0 005.42-.282l4.457-2.893a6.067 6.067 0 002.47-4.844l-.223-4.14a6.019 6.019 0 012.469-4.845l8.654-5.632a6.02 6.02 0 015.433-.282l3.68 1.87a6.02 6.02 0 005.433-.283l4.457-2.892a6.022 6.022 0 002.458-4.845l-.235-5.35z" fill="#E3685D"/><path d="M86.447 30.66h18.638V18.813h5.308v28.994h-5.308V35.958H86.447v11.848h-5.308V18.813h5.308V30.66zm35.521 17.146h-5.308V18.813h5.308v28.993zm35.501-28.993l-13.862 27.962a2.47 2.47 0 01-.979 1.03 2.56 2.56 0 01-1.409.405 2.63 2.63 0 01-1.409-.404 2.659 2.659 0 01-.98-1.031l-13.841-27.962h5.941l10.289 20.885 10.33-20.886h5.92zm27.07 17.145h-16.761V30.66h16.761v5.297zm2.388 11.848h-19.149c-.735 0-1.537-.128-2.409-.384a7.315 7.315 0 01-2.429-1.254c-.735-.593-1.354-1.354-1.858-2.285-.49-.943-.735-2.096-.735-3.457V21.461c0-.364.069-.707.205-1.031a2.78 2.78 0 01.551-.85c.245-.242.531-.43.857-.565a2.76 2.76 0 011.062-.203h23.905v5.257h-21.272v16.357c0 .688.184 1.213.551 1.577.368.364.906.546 1.613.546h19.108v5.257zm34.358-12.131c0 1.766-.313 3.39-.939 4.872a11.532 11.532 0 01-2.552 3.842c-1.088 1.065-2.381 1.9-3.879 2.507-1.497.607-3.123.91-4.879.91h-14.331a2.75 2.75 0 01-1.061-.202 2.81 2.81 0 01-.858-.546 2.784 2.784 0 01-.551-.85 2.685 2.685 0 01-.204-1.05V21.46c0-.364.068-.707.204-1.031.136-.323.32-.607.551-.85.245-.242.531-.43.858-.565a2.75 2.75 0 011.061-.203h14.331c1.756 0 3.382.304 4.879.91 1.498.607 2.791 1.45 3.879 2.528 1.089 1.064 1.94 2.345 2.552 3.841.626 1.483.939 3.1.939 4.853v4.73zm-5.308-4.731c0-1.025-.17-1.962-.51-2.81a5.925 5.925 0 00-1.409-2.164 6.194 6.194 0 00-2.204-1.395c-.844-.337-1.783-.506-2.818-.506h-11.697v18.48h11.697c1.035 0 1.974-.162 2.818-.485a6.59 6.59 0 002.204-1.395 6.16 6.16 0 001.409-2.164c.34-.849.51-1.792.51-2.83v-4.731zm39.196 14.213c0 .378-.068.728-.204 1.052a2.6 2.6 0 01-.571.849 2.81 2.81 0 01-.858.546 2.697 2.697 0 01-1.041.202h-11.963a16.64 16.64 0 01-3.429-.364 15.911 15.911 0 01-3.369-1.112 14.876 14.876 0 01-3.042-1.941 12.99 12.99 0 01-2.511-2.77c-.707-1.078-1.265-2.305-1.674-3.68-.408-1.388-.612-2.931-.612-4.63V18.813h5.308v14.496c0 1.483.204 2.736.612 3.76.422 1.025.953 1.881 1.592 2.569a7.637 7.637 0 002.103 1.617c.762.391 1.484.68 2.164.87.694.188 1.3.31 1.817.363.531.04.878.061 1.041.061h9.33V18.813h5.307v26.344z" fill="#fff"/></svg>