<svg width="167" height="43" fill="none" xmlns="http://www.w3.org/2000/svg"><path d="M7.914 12.027l3.065 1.532a3.945 3.945 0 003.54-.191l2.895-1.885a3.899 3.899 0 001.61-3.156l-.185-3.456a3.924 3.924 0 00-1.93-2.965L13.844.336a3.923 3.923 0 00-3.54.184L7.41 2.404A3.914 3.914 0 005.8 5.561l.185 3.455a3.915 3.915 0 001.93 3.011zm18.487 4.471l-3.064-1.57a3.93 3.93 0 00-3.532.19l-2.927 1.886a3.946 3.946 0 00-1.608 3.156l.184 3.455a3.922 3.922 0 001.93 2.965l3.065 1.533a3.907 3.907 0 003.531-.184l2.904-1.885a3.961 3.961 0 001.609-3.164l-.184-3.448a3.938 3.938 0 00-1.908-2.934zm9.454 14.573l-3.064-1.532a3.922 3.922 0 00-3.54.184l-2.896 1.885a3.93 3.93 0 00-1.609 3.156l.184 3.455a3.939 3.939 0 001.915 2.92l3.065 1.532a3.945 3.945 0 003.54-.192l2.903-1.885a3.915 3.915 0 001.601-3.156l-.16-3.394a3.914 3.914 0 00-1.939-2.973z" fill="#E3685D"/><path d="M13.277 22.491l-.145-2.689a3.944 3.944 0 011.608-3.156l5.647-3.67a3.93 3.93 0 013.532-.192l2.405 1.226a3.922 3.922 0 003.54-.184l2.896-1.892a3.922 3.922 0 001.609-3.156l-.184-3.448a3.921 3.921 0 00-1.93-2.973L29.19.787a3.947 3.947 0 00-3.54.191l-2.957 1.854a3.915 3.915 0 00-1.601 3.157l.138 2.689a3.915 3.915 0 01-1.602 3.156l-5.646 3.67a3.924 3.924 0 01-3.54.184L8.044 14.47a3.922 3.922 0 00-3.54.184L1.61 16.538A3.915 3.915 0 000 19.695l.184 3.455a3.916 3.916 0 001.93 2.973l3.065 1.532a3.944 3.944 0 003.54-.192l2.896-1.884a3.921 3.921 0 001.662-3.088zM43.61 19.9a3.955 3.955 0 00-1.931-2.972l-3.065-1.533a3.952 3.952 0 00-3.54.192l-2.896 1.885a3.932 3.932 0 00-1.608 3.156l.145 2.697a3.931 3.931 0 01-1.609 3.156l-5.639 3.662a3.944 3.944 0 01-3.539.192l-2.406-1.226a3.93 3.93 0 00-3.531.192l-2.927 1.877a3.947 3.947 0 00-1.609 3.156l.184 3.455a3.924 3.924 0 001.93 2.965l3.065 1.57a3.907 3.907 0 003.532-.183l2.904-1.885a3.952 3.952 0 001.608-3.156l-.145-2.697a3.922 3.922 0 011.609-3.156l5.638-3.67a3.923 3.923 0 013.54-.184l2.398 1.218a3.922 3.922 0 003.54-.184l2.903-1.884a3.924 3.924 0 001.601-3.157L43.61 19.9z" fill="#E3685D"/><path d="M56.321 19.977h12.144v-7.72h3.458v18.89h-3.458v-7.719H56.32v7.72h-3.458v-18.89h3.458v7.72zm23.143 11.171h-3.458v-18.89h3.458v18.89zm23.13-18.89l-9.031 18.218a1.612 1.612 0 01-.638.672 1.675 1.675 0 01-.918.263 1.72 1.72 0 01-.918-.263 1.729 1.729 0 01-.638-.672l-9.018-18.218h3.87l6.704 13.607 6.73-13.607h3.857zm17.637 11.17h-10.92v-3.45h10.92v3.45zm1.556 7.72h-12.476a5.599 5.599 0 01-1.57-.25 4.758 4.758 0 01-1.582-.817 4.845 4.845 0 01-1.211-1.489c-.319-.615-.479-1.365-.479-2.252V13.983c0-.237.045-.46.133-.671.089-.211.209-.396.36-.554.159-.158.345-.28.558-.368a1.8 1.8 0 01.692-.132h15.575v3.425h-13.859V26.34c0 .447.119.79.359 1.027.239.237.589.356 1.05.356h12.45v3.425zm22.385-7.904c0 1.15-.204 2.209-.612 3.175a7.51 7.51 0 01-1.663 2.502 7.697 7.697 0 01-2.527 1.634c-.975.395-2.035.593-3.179.593h-9.337a1.79 1.79 0 01-.691-.132 1.836 1.836 0 01-.559-.356 1.811 1.811 0 01-.359-.553 1.743 1.743 0 01-.133-.685V13.983c0-.237.044-.46.133-.671.089-.211.208-.396.359-.554a1.72 1.72 0 01.559-.368 1.79 1.79 0 01.691-.132h9.337c1.144 0 2.204.197 3.179.593a7.593 7.593 0 012.527 1.646A7.337 7.337 0 01143.56 17c.408.966.612 2.02.612 3.162v3.082zm-3.458-3.082c0-.668-.111-1.278-.333-1.831a3.864 3.864 0 00-.918-1.41 4.04 4.04 0 00-1.436-.909 4.911 4.911 0 00-1.836-.33h-7.621v12.04h7.621a5.09 5.09 0 001.836-.316 4.3 4.3 0 001.436-.908c.399-.396.705-.865.918-1.41a4.911 4.911 0 00.333-1.844v-3.082zm25.537 9.26a1.696 1.696 0 01-.506 1.238c-.159.15-.346.268-.558.356a1.763 1.763 0 01-.679.132h-7.794c-.736 0-1.481-.08-2.234-.238a10.4 10.4 0 01-2.195-.724 9.701 9.701 0 01-1.982-1.265 8.458 8.458 0 01-1.636-1.804 9.02 9.02 0 01-1.09-2.398c-.266-.904-.399-1.91-.399-3.016v-9.445h3.458v9.445c0 .966.133 1.782.399 2.45.275.667.62 1.225 1.037 1.673.417.448.874.799 1.37 1.054.497.254.967.443 1.41.566a7.59 7.59 0 001.184.237c.346.026.572.04.678.04h6.078V12.258h3.459v17.164z" fill="#000"/></svg>